<?xml version="1.0" standalone="no"?>
<!DOCTYPE svg PUBLIC "-//W3C//DTD SVG 20010904//EN"
 "http://www.w3.org/TR/2001/REC-SVG-20010904/DTD/svg10.dtd">
<svg version="1.0" xmlns="http://www.w3.org/2000/svg"
 width="300.000000pt" height="240.000000pt" viewBox="0 0 300.000000 240.000000"
 preserveAspectRatio="xMidYMid meet">
<metadata>
Created by potrace 1.10, written by Peter Selinger 2001-2011
</metadata>
<g transform="translate(0.000000,240.000000) scale(0.100000,-0.100000)"
fill="#000000" stroke="none">
<path d="M121 2393 c-65 -8 -98 -43 -112 -118 -6 -36 -6 -38 7 -20 8 10 14 24
14 30 0 16 48 59 87 79 17 9 35 20 38 26 3 5 5 9 3 8 -2 0 -18 -3 -37 -5z"/>
<path d="M2851 2383 c6 -7 26 -18 44 -24 20 -8 42 -27 57 -51 44 -73 48 -77
41 -38 -13 77 -49 114 -115 122 -29 3 -35 1 -27 -9z"/>
<path d="M287 2112 c-16 -17 -17 -95 -17 -914 0 -854 1 -896 18 -911 17 -16
116 -17 1214 -17 1145 0 1196 1 1211 18 16 17 17 95 17 914 0 854 -1 896 -18
911 -17 16 -116 17 -1214 17 -1145 0 -1196 -1 -1211 -18z m2413 -912 l0 -900
-1200 0 -1200 0 0 900 0 900 1200 0 1200 0 0 -900z"/>
<path d="M974 1792 l-91 -3 -202 -587 c-111 -323 -201 -589 -201 -592 0 -3 44
-4 99 -2 l99 3 57 165 57 164 187 0 186 0 56 -163 56 -162 101 -5 c56 -3 102
-4 102 -4 0 6 -410 1187 -412 1188 -2 0 -44 0 -94 -2z m117 -142 c31 -87 123
-355 310 -898 41 -116 42 -113 -38 -110 l-67 3 -43 125 c-24 69 -51 141 -61
160 l-17 35 -191 3 c-172 2 -192 1 -206 -15 -15 -17 -35 -66 -95 -240 l-25
-73 -69 0 c-38 0 -69 2 -69 5 0 3 86 254 190 557 105 303 190 553 190 555 0 2
35 3 77 1 l77 -3 37 -105z"/>
<path d="M958 1463 c-8 -10 -40 -87 -72 -172 -72 -196 -74 -191 94 -191 161 0
158 -6 96 174 -74 215 -83 229 -118 189z m32 -15 c0 -7 24 -82 54 -165 l53
-153 -118 0 c-66 0 -119 1 -119 3 0 2 25 71 55 153 30 82 55 155 55 162 0 6 5
12 10 12 6 0 10 -6 10 -12z"/>
<path d="M1660 1200 l0 -595 95 3 95 3 0 257 0 257 112 -2 112 -2 94 -255 95
-255 103 -3 c90 -3 103 -1 98 12 -21 53 -204 539 -204 544 0 3 6 6 13 6 27 0
94 70 128 132 32 58 34 69 34 153 0 76 -4 98 -27 147 -31 66 -90 127 -156 159
-45 23 -60 24 -320 29 l-272 5 0 -595z m578 531 c67 -30 135 -105 158 -173 40
-121 -2 -264 -101 -340 -27 -20 -52 -42 -56 -50 -4 -7 32 -118 87 -263 51
-137 94 -253 94 -257 0 -5 -31 -8 -69 -8 l-69 0 -30 78 c-16 42 -55 149 -87
237 -74 205 -74 205 -204 205 -147 0 -138 17 -147 -277 l-7 -243 -58 0 -59 0
0 561 0 561 248 -4 c234 -3 250 -5 300 -27z"/>
<path d="M1837 1622 c-14 -16 -17 -41 -17 -164 0 -125 2 -147 18 -161 13 -12
45 -16 154 -16 142 -2 188 8 231 47 48 43 71 135 48 195 -15 39 -78 94 -121
105 -22 5 -98 11 -168 11 -114 2 -130 0 -145 -17z m343 -37 c44 -26 85 -102
76 -143 -10 -44 -42 -90 -76 -107 -23 -12 -66 -16 -180 -18 l-150 -2 0 149 0
148 148 -3 c125 -4 152 -7 182 -24z"/>
<path d="M2966 112 c-17 -33 -37 -55 -67 -72 -37 -21 -41 -25 -22 -28 52 -8
102 42 116 116 9 44 2 40 -27 -16z"/>
<path d="M10 120 c0 -54 41 -96 107 -111 46 -10 41 2 -13 30 -30 16 -52 37
-65 63 -22 43 -29 47 -29 18z"/>
</g>
</svg>
